<svg xmlns="http://www.w3.org/2000/svg" xmlns:xlink="http://www.w3.org/1999/xlink" width="463" zoomAndPan="magnify" viewBox="0 0 347.25 88.499997" height="118" preserveAspectRatio="xMidYMid meet" version="1.0"><defs><g/><clipPath id="b0b40ca5ec"><path d="M 0.601562 5 L 30 5 L 30 58 L 0.601562 58 Z M 0.601562 5 " clip-rule="nonzero"/></clipPath><clipPath id="4d88d3ae91"><path d="M 310 21 L 345.902344 21 L 345.902344 59 L 310 59 Z M 310 21 " clip-rule="nonzero"/></clipPath></defs><g clip-path="url(#b0b40ca5ec)"><g fill="#ffff00" fill-opacity="1"><g transform="translate(-1.192934, 57.695183)"><g><path d="M 18.59375 -46.234375 C 17.863281 -46.234375 17.226562 -45.875 16.6875 -45.15625 C 16.144531 -44.445312 15.875 -43.382812 15.875 -41.96875 C 15.875 -40.351562 16.203125 -38.832031 16.859375 -37.40625 C 17.523438 -35.988281 18.546875 -35.28125 19.921875 -35.28125 L 25.4375 -35.28125 C 26.164062 -35.28125 26.785156 -35.054688 27.296875 -34.609375 C 27.816406 -34.171875 27.953125 -33.289062 27.703125 -31.96875 C 27.460938 -30.644531 27.007812 -29.785156 26.34375 -29.390625 C 25.6875 -29.003906 24.941406 -28.835938 24.109375 -28.890625 L 19.921875 -29.109375 L 19.921875 -10.734375 C 19.921875 -8.816406 20.175781 -7.46875 20.6875 -6.6875 C 21.207031 -5.90625 21.804688 -5.363281 22.484375 -5.0625 C 23.171875 -4.769531 23.769531 -4.460938 24.28125 -4.140625 C 24.800781 -3.828125 25.0625 -3.179688 25.0625 -2.203125 C 25.0625 -1.273438 24.753906 -0.675781 24.140625 -0.40625 C 23.523438 -0.132812 22.65625 0 21.53125 0 L 6.828125 0 C 5.609375 0 4.664062 -0.15625 4 -0.46875 C 3.34375 -0.789062 3.015625 -1.421875 3.015625 -2.359375 C 3.015625 -3.179688 3.195312 -3.789062 3.5625 -4.1875 C 3.925781 -4.582031 4.351562 -4.972656 4.84375 -5.359375 C 5.34375 -5.753906 5.773438 -6.34375 6.140625 -7.125 C 6.503906 -7.914062 6.6875 -9.117188 6.6875 -10.734375 L 6.6875 -29.6875 L 4.78125 -29.765625 C 3.894531 -29.816406 3.15625 -30.015625 2.5625 -30.359375 C 1.976562 -30.703125 1.785156 -31.410156 1.984375 -32.484375 C 2.179688 -33.660156 2.644531 -34.421875 3.375 -34.765625 C 4.113281 -35.109375 4.945312 -35.28125 5.875 -35.28125 L 6.6875 -35.28125 C 6.6875 -38.8125 7.347656 -41.835938 8.671875 -44.359375 C 9.992188 -46.878906 11.753906 -48.8125 13.953125 -50.15625 C 16.160156 -51.507812 18.539062 -52.1875 21.09375 -52.1875 C 23.738281 -52.1875 25.96875 -51.410156 27.78125 -49.859375 C 29.59375 -48.316406 30.5 -46.222656 30.5 -43.578125 C 30.5 -42.359375 30.253906 -41.390625 29.765625 -40.671875 C 29.273438 -39.960938 28.6875 -39.472656 28 -39.203125 C 27.3125 -38.941406 26.675781 -38.8125 26.09375 -38.8125 C 24.820312 -38.8125 23.890625 -39.191406 23.296875 -39.953125 C 22.710938 -40.710938 22.25 -41.53125 21.90625 -42.40625 C 21.613281 -43.238281 21.207031 -44.082031 20.6875 -44.9375 C 20.175781 -45.800781 19.476562 -46.234375 18.59375 -46.234375 Z M 18.59375 -46.234375 "/></g></g></g></g><g fill="#ffff00" fill-opacity="1"><g transform="translate(24.898266, 57.695183)"><g><path d="M 36.09375 -20.21875 L 36.09375 -11.25 C 36.09375 -9.875 36.300781 -8.878906 36.71875 -8.265625 C 37.132812 -7.648438 37.625 -7.21875 38.1875 -6.96875 C 38.75 -6.726562 39.238281 -6.5 39.65625 -6.28125 C 40.070312 -6.0625 40.28125 -5.679688 40.28125 -5.140625 C 40.28125 -4.109375 39.8125 -3.148438 38.875 -2.265625 C 37.945312 -1.390625 36.804688 -0.691406 35.453125 -0.171875 C 34.109375 0.335938 32.800781 0.59375 31.53125 0.59375 C 30.695312 0.59375 29.8125 0.503906 28.875 0.328125 C 27.945312 0.160156 27.09375 -0.25 26.3125 -0.90625 C 25.53125 -1.570312 24.894531 -2.664062 24.40625 -4.1875 C 22.832031 -2.46875 21.039062 -1.238281 19.03125 -0.5 C 17.019531 0.226562 15.015625 0.59375 13.015625 0.59375 C 11.296875 0.59375 9.503906 0.226562 7.640625 -0.5 C 5.773438 -1.238281 4.21875 -2.40625 2.96875 -4 C 1.726562 -5.59375 1.109375 -7.640625 1.109375 -10.140625 C 1.109375 -12.492188 1.816406 -14.5625 3.234375 -16.34375 C 4.648438 -18.132812 6.644531 -19.53125 9.21875 -20.53125 C 11.789062 -21.539062 14.816406 -22.046875 18.296875 -22.046875 C 19.523438 -22.046875 20.394531 -22.03125 20.90625 -22 C 21.425781 -21.976562 22.148438 -21.894531 23.078125 -21.75 C 22.492188 -24.007812 21.488281 -25.59375 20.0625 -26.5 C 18.644531 -27.40625 16.832031 -27.859375 14.625 -27.859375 C 13.394531 -27.859375 12.191406 -27.671875 11.015625 -27.296875 C 9.847656 -26.929688 8.703125 -26.429688 7.578125 -25.796875 C 7.128906 -25.503906 6.660156 -25.414062 6.171875 -25.53125 C 5.679688 -25.65625 5.335938 -25.960938 5.140625 -26.453125 C 4.941406 -26.941406 5.039062 -27.554688 5.4375 -28.296875 C 6.125 -29.472656 7.226562 -30.660156 8.75 -31.859375 C 10.269531 -33.054688 12.054688 -34.046875 14.109375 -34.828125 C 16.171875 -35.617188 18.28125 -36.015625 20.4375 -36.015625 C 25.675781 -36.015625 29.59375 -34.59375 32.1875 -31.75 C 34.789062 -28.90625 36.09375 -25.0625 36.09375 -20.21875 Z M 17.78125 -5.875 C 18.570312 -5.875 19.394531 -6.054688 20.25 -6.421875 C 21.101562 -6.796875 21.847656 -7.3125 22.484375 -7.96875 C 23.128906 -8.632812 23.453125 -9.429688 23.453125 -10.359375 C 23.453125 -10.953125 23.453125 -11.601562 23.453125 -12.3125 C 23.453125 -13.019531 23.398438 -13.890625 23.296875 -14.921875 C 23.242188 -15.953125 22.875 -16.660156 22.1875 -17.046875 C 21.507812 -17.441406 20.457031 -17.640625 19.03125 -17.640625 C 17.125 -17.640625 15.554688 -17.097656 14.328125 -16.015625 C 13.109375 -14.941406 12.472656 -13.472656 12.421875 -11.609375 C 12.421875 -9.796875 12.945312 -8.382812 14 -7.375 C 15.050781 -6.375 16.3125 -5.875 17.78125 -5.875 Z M 17.78125 -5.875 "/></g></g></g><g fill="#ffff00" fill-opacity="1"><g transform="translate(61.940536, 57.695183)"><g><path d="M 26.75 -36.015625 C 29.101562 -36.015625 30.914062 -35.328125 32.1875 -33.953125 C 33.46875 -32.585938 34.109375 -30.75 34.109375 -28.4375 C 34.109375 -26.476562 33.703125 -24.984375 32.890625 -23.953125 C 32.078125 -22.929688 31.0625 -22.421875 29.84375 -22.421875 C 28.8125 -22.421875 28 -22.640625 27.40625 -23.078125 C 26.820312 -23.515625 26.304688 -24.023438 25.859375 -24.609375 C 25.421875 -25.203125 24.929688 -25.71875 24.390625 -26.15625 C 23.859375 -26.601562 23.101562 -26.828125 22.125 -26.828125 C 21.09375 -26.828125 20.207031 -26.382812 19.46875 -25.5 C 18.738281 -24.625 18.375 -23.128906 18.375 -21.015625 L 18.375 -10.734375 C 18.375 -9.066406 18.554688 -7.851562 18.921875 -7.09375 C 19.296875 -6.332031 19.726562 -5.78125 20.21875 -5.4375 C 20.707031 -5.09375 21.132812 -4.710938 21.5 -4.296875 C 21.863281 -3.878906 22.046875 -3.179688 22.046875 -2.203125 C 22.046875 -1.273438 21.738281 -0.675781 21.125 -0.40625 C 20.519531 -0.132812 19.648438 0 18.515625 0 L 5.296875 0 C 4.066406 0 3.117188 -0.15625 2.453125 -0.46875 C 1.796875 -0.789062 1.46875 -1.421875 1.46875 -2.359375 C 1.46875 -3.335938 1.648438 -4.007812 2.015625 -4.375 C 2.390625 -4.738281 2.832031 -5.09375 3.34375 -5.4375 C 3.851562 -5.78125 4.289062 -6.332031 4.65625 -7.09375 C 5.03125 -7.851562 5.21875 -9.066406 5.21875 -10.734375 L 5.21875 -23.890625 C 5.21875 -24.722656 4.957031 -25.382812 4.4375 -25.875 C 3.925781 -26.363281 3.398438 -26.851562 2.859375 -27.34375 C 2.617188 -27.632812 2.328125 -27.960938 1.984375 -28.328125 C 1.640625 -28.703125 1.46875 -29.207031 1.46875 -29.84375 C 1.46875 -30.570312 1.675781 -31.132812 2.09375 -31.53125 C 2.507812 -31.925781 3.160156 -32.316406 4.046875 -32.703125 C 5.078125 -33.191406 6.363281 -33.691406 7.90625 -34.203125 C 9.445312 -34.722656 10.898438 -35.164062 12.265625 -35.53125 C 13.640625 -35.90625 14.523438 -36.09375 14.921875 -36.09375 C 16.242188 -36.039062 16.90625 -35.109375 16.90625 -33.296875 L 16.90625 -30.359375 C 18.46875 -32.554688 20.128906 -34.046875 21.890625 -34.828125 C 23.660156 -35.617188 25.28125 -36.015625 26.75 -36.015625 Z M 26.75 -36.015625 "/></g></g></g><g fill="#ffff00" fill-opacity="1"><g transform="translate(94.0585, 57.695183)"><g><path d="M 64.90625 -21.171875 L 64.90625 -10.734375 C 64.90625 -9.066406 65.085938 -7.851562 65.453125 -7.09375 C 65.816406 -6.332031 66.242188 -5.78125 66.734375 -5.4375 C 67.222656 -5.09375 67.648438 -4.710938 68.015625 -4.296875 C 68.390625 -3.878906 68.578125 -3.179688 68.578125 -2.203125 C 68.578125 -1.273438 68.269531 -0.675781 67.65625 -0.40625 C 67.039062 -0.132812 66.171875 0 65.046875 0 L 51.8125 0 C 50.59375 0 49.660156 -0.15625 49.015625 -0.46875 C 48.378906 -0.789062 48.0625 -1.421875 48.0625 -2.359375 C 48.0625 -3.335938 48.242188 -4.007812 48.609375 -4.375 C 48.984375 -4.738281 49.414062 -5.09375 49.90625 -5.4375 C 50.394531 -5.78125 50.820312 -6.332031 51.1875 -7.09375 C 51.5625 -7.851562 51.75 -9.066406 51.75 -10.734375 L 51.75 -19.765625 C 51.75 -22.066406 51.390625 -24.023438 50.671875 -25.640625 C 49.960938 -27.265625 48.601562 -28.078125 46.59375 -28.078125 C 45.03125 -28.078125 43.796875 -27.453125 42.890625 -26.203125 C 41.984375 -24.953125 41.53125 -23.25 41.53125 -21.09375 L 41.453125 -10.734375 C 41.453125 -9.066406 41.632812 -7.851562 42 -7.09375 C 42.375 -6.332031 42.816406 -5.78125 43.328125 -5.4375 C 43.835938 -5.09375 44.273438 -4.710938 44.640625 -4.296875 C 45.015625 -3.878906 45.203125 -3.179688 45.203125 -2.203125 C 45.203125 -1.273438 44.882812 -0.675781 44.25 -0.40625 C 43.613281 -0.132812 42.753906 0 41.671875 0 L 28.4375 0 C 27.21875 0 26.273438 -0.15625 25.609375 -0.46875 C 24.953125 -0.789062 24.625 -1.421875 24.625 -2.359375 C 24.625 -3.335938 24.804688 -4.007812 25.171875 -4.375 C 25.535156 -4.738281 25.960938 -5.09375 26.453125 -5.4375 C 26.941406 -5.78125 27.367188 -6.332031 27.734375 -7.09375 C 28.109375 -7.851562 28.296875 -9.066406 28.296875 -10.734375 L 28.296875 -19.765625 C 28.296875 -21.191406 28.222656 -22.53125 28.078125 -23.78125 C 27.929688 -25.03125 27.550781 -26.046875 26.9375 -26.828125 C 26.320312 -27.609375 25.332031 -28 23.96875 -28 C 22.539062 -28 21.25 -27.335938 20.09375 -26.015625 C 18.945312 -24.691406 18.375 -23.050781 18.375 -21.09375 L 18.375 -10.734375 C 18.375 -9.066406 18.554688 -7.851562 18.921875 -7.09375 C 19.296875 -6.332031 19.726562 -5.78125 20.21875 -5.4375 C 20.707031 -5.09375 21.132812 -4.710938 21.5 -4.296875 C 21.863281 -3.878906 22.046875 -3.179688 22.046875 -2.203125 C 22.046875 -1.273438 21.738281 -0.675781 21.125 -0.40625 C 20.519531 -0.132812 19.648438 0 18.515625 0 L 5.296875 0 C 4.066406 0 3.117188 -0.15625 2.453125 -0.46875 C 1.796875 -0.789062 1.46875 -1.421875 1.46875 -2.359375 C 1.46875 -3.335938 1.648438 -4.007812 2.015625 -4.375 C 2.390625 -4.738281 2.832031 -5.09375 3.34375 -5.4375 C 3.851562 -5.78125 4.289062 -6.332031 4.65625 -7.09375 C 5.03125 -7.851562 5.21875 -9.066406 5.21875 -10.734375 L 5.21875 -23.890625 C 5.21875 -24.722656 4.957031 -25.382812 4.4375 -25.875 C 3.925781 -26.363281 3.398438 -26.851562 2.859375 -27.34375 C 2.617188 -27.632812 2.328125 -27.960938 1.984375 -28.328125 C 1.640625 -28.703125 1.46875 -29.207031 1.46875 -29.84375 C 1.46875 -30.570312 1.675781 -31.132812 2.09375 -31.53125 C 2.507812 -31.925781 3.160156 -32.316406 4.046875 -32.703125 C 5.078125 -33.191406 6.363281 -33.691406 7.90625 -34.203125 C 9.445312 -34.722656 10.898438 -35.164062 12.265625 -35.53125 C 13.640625 -35.90625 14.523438 -36.09375 14.921875 -36.09375 C 16.242188 -36.039062 16.90625 -35.109375 16.90625 -33.296875 L 16.90625 -30.140625 C 18.375 -32.097656 20.125 -33.566406 22.15625 -34.546875 C 24.1875 -35.523438 26.304688 -36.015625 28.515625 -36.015625 C 31.304688 -36.015625 33.597656 -35.535156 35.390625 -34.578125 C 37.179688 -33.628906 38.539062 -32.296875 39.46875 -30.578125 C 41.082031 -32.535156 43.003906 -33.929688 45.234375 -34.765625 C 47.460938 -35.597656 49.609375 -36.015625 51.671875 -36.015625 C 54.898438 -36.015625 57.484375 -35.375 59.421875 -34.09375 C 61.359375 -32.820312 62.753906 -31.070312 63.609375 -28.84375 C 64.472656 -26.613281 64.90625 -24.054688 64.90625 -21.171875 Z M 64.90625 -21.171875 "/></g></g></g><g fill="#ffff00" fill-opacity="1"><g transform="translate(160.426122, 57.695183)"><g><path d="M 20.734375 0.734375 C 16.804688 0.734375 13.503906 0.269531 10.828125 -0.65625 C 8.160156 -1.59375 6.15625 -2.816406 4.8125 -4.328125 C 3.46875 -5.847656 2.796875 -7.441406 2.796875 -9.109375 C 2.796875 -10.734375 3.257812 -11.945312 4.1875 -12.75 C 5.125 -13.5625 6.226562 -13.96875 7.5 -13.96875 C 8.675781 -13.96875 9.59375 -13.722656 10.25 -13.234375 C 10.914062 -12.742188 11.476562 -12.15625 11.9375 -11.46875 C 12.40625 -10.78125 12.859375 -10.117188 13.296875 -9.484375 C 14.378906 -8.054688 15.457031 -6.863281 16.53125 -5.90625 C 17.613281 -4.957031 18.816406 -4.484375 20.140625 -4.484375 C 20.972656 -4.484375 21.671875 -4.738281 22.234375 -5.25 C 22.796875 -5.769531 23.078125 -6.492188 23.078125 -7.421875 C 23.078125 -8.160156 22.878906 -8.921875 22.484375 -9.703125 C 22.097656 -10.484375 21.335938 -11.300781 20.203125 -12.15625 C 19.078125 -13.019531 17.414062 -13.867188 15.21875 -14.703125 C 14.039062 -15.191406 12.765625 -15.71875 11.390625 -16.28125 C 10.015625 -16.84375 8.710938 -17.515625 7.484375 -18.296875 C 6.265625 -19.085938 5.273438 -20.054688 4.515625 -21.203125 C 3.753906 -22.359375 3.375 -23.769531 3.375 -25.4375 C 3.375 -27.832031 4.097656 -29.800781 5.546875 -31.34375 C 6.992188 -32.882812 8.929688 -34.046875 11.359375 -34.828125 C 13.785156 -35.617188 16.441406 -36.015625 19.328125 -36.015625 C 22.265625 -36.015625 24.921875 -35.695312 27.296875 -35.0625 C 29.679688 -34.425781 31.582031 -33.46875 33 -32.1875 C 34.425781 -30.914062 35.140625 -29.300781 35.140625 -27.34375 C 35.140625 -25.726562 34.671875 -24.515625 33.734375 -23.703125 C 32.804688 -22.890625 31.703125 -22.484375 30.421875 -22.484375 C 28.710938 -22.484375 27.378906 -22.972656 26.421875 -23.953125 C 25.460938 -24.941406 24.71875 -25.972656 24.1875 -27.046875 C 23.5 -28.367188 22.796875 -29.300781 22.078125 -29.84375 C 21.367188 -30.382812 20.597656 -30.65625 19.765625 -30.65625 C 18.929688 -30.65625 18.257812 -30.382812 17.75 -29.84375 C 17.238281 -29.300781 16.984375 -28.585938 16.984375 -27.703125 C 16.984375 -26.484375 17.546875 -25.296875 18.671875 -24.140625 C 19.796875 -22.992188 21.925781 -21.707031 25.0625 -20.28125 C 27.269531 -19.257812 29.253906 -18.34375 31.015625 -17.53125 C 32.773438 -16.71875 34.171875 -15.757812 35.203125 -14.65625 C 36.234375 -13.5625 36.75 -12.082031 36.75 -10.21875 C 36.75 -6.789062 35.300781 -4.109375 32.40625 -2.171875 C 29.519531 -0.234375 25.628906 0.734375 20.734375 0.734375 Z M 20.734375 0.734375 "/></g></g></g><g fill="#ffff00" fill-opacity="1"><g transform="translate(195.630959, 57.695183)"><g><path d="M 42.109375 -21.171875 L 42.109375 -10.734375 C 42.109375 -9.066406 42.289062 -7.851562 42.65625 -7.09375 C 43.03125 -6.332031 43.472656 -5.78125 43.984375 -5.4375 C 44.503906 -5.09375 44.945312 -4.710938 45.3125 -4.296875 C 45.675781 -3.878906 45.859375 -3.179688 45.859375 -2.203125 C 45.859375 -1.273438 45.539062 -0.675781 44.90625 -0.40625 C 44.269531 -0.132812 43.414062 0 42.34375 0 L 29.03125 0 C 27.800781 0 26.867188 -0.15625 26.234375 -0.46875 C 25.597656 -0.789062 25.28125 -1.421875 25.28125 -2.359375 C 25.28125 -3.335938 25.460938 -4.007812 25.828125 -4.375 C 26.203125 -4.738281 26.632812 -5.09375 27.125 -5.4375 C 27.613281 -5.78125 28.039062 -6.332031 28.40625 -7.09375 C 28.769531 -7.851562 28.953125 -9.066406 28.953125 -10.734375 L 28.953125 -19.765625 C 28.953125 -22.066406 28.597656 -24.023438 27.890625 -25.640625 C 27.179688 -27.265625 25.820312 -28.078125 23.8125 -28.078125 C 22.394531 -28.078125 21.234375 -27.523438 20.328125 -26.421875 C 19.421875 -25.316406 18.894531 -23.832031 18.75 -21.96875 L 18.75 -10.734375 C 18.75 -9.066406 18.929688 -7.851562 19.296875 -7.09375 C 19.660156 -6.332031 20.085938 -5.78125 20.578125 -5.4375 C 21.066406 -5.09375 21.492188 -4.710938 21.859375 -4.296875 C 22.234375 -3.878906 22.421875 -3.179688 22.421875 -2.203125 C 22.421875 -1.273438 22.113281 -0.675781 21.5 -0.40625 C 20.882812 -0.132812 20.015625 0 18.890625 0 L 5.65625 0 C 4.4375 0 3.492188 -0.15625 2.828125 -0.46875 C 2.171875 -0.789062 1.84375 -1.421875 1.84375 -2.359375 C 1.84375 -3.335938 2.023438 -4.007812 2.390625 -4.375 C 2.753906 -4.738281 3.179688 -5.09375 3.671875 -5.4375 C 4.160156 -5.78125 4.601562 -6.332031 5 -7.09375 C 5.394531 -7.851562 5.59375 -9.066406 5.59375 -10.734375 L 5.59375 -39.328125 C 5.59375 -40.546875 5.304688 -41.460938 4.734375 -42.078125 C 4.171875 -42.691406 3.609375 -43.226562 3.046875 -43.6875 C 2.484375 -44.15625 2.203125 -44.757812 2.203125 -45.5 C 2.203125 -46.132812 2.394531 -46.632812 2.78125 -47 C 3.175781 -47.363281 3.816406 -47.742188 4.703125 -48.140625 C 5.441406 -48.484375 6.410156 -48.882812 7.609375 -49.34375 C 8.804688 -49.8125 10.050781 -50.253906 11.34375 -50.671875 C 12.644531 -51.085938 13.8125 -51.441406 14.84375 -51.734375 C 15.875 -52.035156 16.5625 -52.1875 16.90625 -52.1875 C 18.226562 -52.1875 18.890625 -51.253906 18.890625 -49.390625 L 18.8125 -39.390625 L 18.8125 -32.640625 C 20.332031 -33.859375 21.972656 -34.722656 23.734375 -35.234375 C 25.503906 -35.753906 27.222656 -36.015625 28.890625 -36.015625 C 32.117188 -36.015625 34.703125 -35.375 36.640625 -34.09375 C 38.578125 -32.820312 39.972656 -31.070312 40.828125 -28.84375 C 41.679688 -26.613281 42.109375 -24.054688 42.109375 -21.171875 Z M 42.109375 -21.171875 "/></g></g></g><g fill="#ffff00" fill-opacity="1"><g transform="translate(239.214482, 57.695183)"><g><path d="M 36.09375 -20.21875 L 36.09375 -11.25 C 36.09375 -9.875 36.300781 -8.878906 36.71875 -8.265625 C 37.132812 -7.648438 37.625 -7.21875 38.1875 -6.96875 C 38.75 -6.726562 39.238281 -6.5 39.65625 -6.28125 C 40.070312 -6.0625 40.28125 -5.679688 40.28125 -5.140625 C 40.28125 -4.109375 39.8125 -3.148438 38.875 -2.265625 C 37.945312 -1.390625 36.804688 -0.691406 35.453125 -0.171875 C 34.109375 0.335938 32.800781 0.59375 31.53125 0.59375 C 30.695312 0.59375 29.8125 0.503906 28.875 0.328125 C 27.945312 0.160156 27.09375 -0.25 26.3125 -0.90625 C 25.53125 -1.570312 24.894531 -2.664062 24.40625 -4.1875 C 22.832031 -2.46875 21.039062 -1.238281 19.03125 -0.5 C 17.019531 0.226562 15.015625 0.59375 13.015625 0.59375 C 11.296875 0.59375 9.503906 0.226562 7.640625 -0.5 C 5.773438 -1.238281 4.21875 -2.40625 2.96875 -4 C 1.726562 -5.59375 1.109375 -7.640625 1.109375 -10.140625 C 1.109375 -12.492188 1.816406 -14.5625 3.234375 -16.34375 C 4.648438 -18.132812 6.644531 -19.53125 9.21875 -20.53125 C 11.789062 -21.539062 14.816406 -22.046875 18.296875 -22.046875 C 19.523438 -22.046875 20.394531 -22.03125 20.90625 -22 C 21.425781 -21.976562 22.148438 -21.894531 23.078125 -21.75 C 22.492188 -24.007812 21.488281 -25.59375 20.0625 -26.5 C 18.644531 -27.40625 16.832031 -27.859375 14.625 -27.859375 C 13.394531 -27.859375 12.191406 -27.671875 11.015625 -27.296875 C 9.847656 -26.929688 8.703125 -26.429688 7.578125 -25.796875 C 7.128906 -25.503906 6.660156 -25.414062 6.171875 -25.53125 C 5.679688 -25.65625 5.335938 -25.960938 5.140625 -26.453125 C 4.941406 -26.941406 5.039062 -27.554688 5.4375 -28.296875 C 6.125 -29.472656 7.226562 -30.660156 8.75 -31.859375 C 10.269531 -33.054688 12.054688 -34.046875 14.109375 -34.828125 C 16.171875 -35.617188 18.28125 -36.015625 20.4375 -36.015625 C 25.675781 -36.015625 29.59375 -34.59375 32.1875 -31.75 C 34.789062 -28.90625 36.09375 -25.0625 36.09375 -20.21875 Z M 17.78125 -5.875 C 18.570312 -5.875 19.394531 -6.054688 20.25 -6.421875 C 21.101562 -6.796875 21.847656 -7.3125 22.484375 -7.96875 C 23.128906 -8.632812 23.453125 -9.429688 23.453125 -10.359375 C 23.453125 -10.953125 23.453125 -11.601562 23.453125 -12.3125 C 23.453125 -13.019531 23.398438 -13.890625 23.296875 -14.921875 C 23.242188 -15.953125 22.875 -16.660156 22.1875 -17.046875 C 21.507812 -17.441406 20.457031 -17.640625 19.03125 -17.640625 C 17.125 -17.640625 15.554688 -17.097656 14.328125 -16.015625 C 13.109375 -14.941406 12.472656 -13.472656 12.421875 -11.609375 C 12.421875 -9.796875 12.945312 -8.382812 14 -7.375 C 15.050781 -6.375 16.3125 -5.875 17.78125 -5.875 Z M 17.78125 -5.875 "/></g></g></g><g fill="#ffff00" fill-opacity="1"><g transform="translate(276.256746, 57.695183)"><g><path d="M 26.75 -36.015625 C 29.101562 -36.015625 30.914062 -35.328125 32.1875 -33.953125 C 33.46875 -32.585938 34.109375 -30.75 34.109375 -28.4375 C 34.109375 -26.476562 33.703125 -24.984375 32.890625 -23.953125 C 32.078125 -22.929688 31.0625 -22.421875 29.84375 -22.421875 C 28.8125 -22.421875 28 -22.640625 27.40625 -23.078125 C 26.820312 -23.515625 26.304688 -24.023438 25.859375 -24.609375 C 25.421875 -25.203125 24.929688 -25.71875 24.390625 -26.15625 C 23.859375 -26.601562 23.101562 -26.828125 22.125 -26.828125 C 21.09375 -26.828125 20.207031 -26.382812 19.46875 -25.5 C 18.738281 -24.625 18.375 -23.128906 18.375 -21.015625 L 18.375 -10.734375 C 18.375 -9.066406 18.554688 -7.851562 18.921875 -7.09375 C 19.296875 -6.332031 19.726562 -5.78125 20.21875 -5.4375 C 20.707031 -5.09375 21.132812 -4.710938 21.5 -4.296875 C 21.863281 -3.878906 22.046875 -3.179688 22.046875 -2.203125 C 22.046875 -1.273438 21.738281 -0.675781 21.125 -0.40625 C 20.519531 -0.132812 19.648438 0 18.515625 0 L 5.296875 0 C 4.066406 0 3.117188 -0.15625 2.453125 -0.46875 C 1.796875 -0.789062 1.46875 -1.421875 1.46875 -2.359375 C 1.46875 -3.335938 1.648438 -4.007812 2.015625 -4.375 C 2.390625 -4.738281 2.832031 -5.09375 3.34375 -5.4375 C 3.851562 -5.78125 4.289062 -6.332031 4.65625 -7.09375 C 5.03125 -7.851562 5.21875 -9.066406 5.21875 -10.734375 L 5.21875 -23.890625 C 5.21875 -24.722656 4.957031 -25.382812 4.4375 -25.875 C 3.925781 -26.363281 3.398438 -26.851562 2.859375 -27.34375 C 2.617188 -27.632812 2.328125 -27.960938 1.984375 -28.328125 C 1.640625 -28.703125 1.46875 -29.207031 1.46875 -29.84375 C 1.46875 -30.570312 1.675781 -31.132812 2.09375 -31.53125 C 2.507812 -31.925781 3.160156 -32.316406 4.046875 -32.703125 C 5.078125 -33.191406 6.363281 -33.691406 7.90625 -34.203125 C 9.445312 -34.722656 10.898438 -35.164062 12.265625 -35.53125 C 13.640625 -35.90625 14.523438 -36.09375 14.921875 -36.09375 C 16.242188 -36.039062 16.90625 -35.109375 16.90625 -33.296875 L 16.90625 -30.359375 C 18.46875 -32.554688 20.128906 -34.046875 21.890625 -34.828125 C 23.660156 -35.617188 25.28125 -36.015625 26.75 -36.015625 Z M 26.75 -36.015625 "/></g></g></g><g clip-path="url(#4d88d3ae91)"><g fill="#ffff00" fill-opacity="1"><g transform="translate(308.374716, 57.695183)"><g><path d="M 37.5625 -19.25 C 37.507812 -17.78125 36.722656 -17.046875 35.203125 -17.046875 L 15.359375 -16.53125 C 15.898438 -13.882812 17.125 -11.875 19.03125 -10.5 C 20.945312 -9.132812 23.253906 -8.453125 25.953125 -8.453125 C 27.953125 -8.453125 29.566406 -8.78125 30.796875 -9.4375 C 32.023438 -10.101562 33.25 -10.898438 34.46875 -11.828125 C 35.40625 -12.617188 36.164062 -12.71875 36.75 -12.125 C 37.332031 -11.539062 37.429688 -10.632812 37.046875 -9.40625 C 36.597656 -7.9375 35.6875 -6.414062 34.3125 -4.84375 C 32.945312 -3.28125 31.085938 -1.957031 28.734375 -0.875 C 26.378906 0.195312 23.460938 0.734375 19.984375 0.734375 C 16.515625 0.734375 13.441406 -0.0078125 10.765625 -1.5 C 8.097656 -3 6.03125 -5.082031 4.5625 -7.75 C 3.09375 -10.425781 2.359375 -13.503906 2.359375 -16.984375 C 2.359375 -19.816406 2.90625 -22.394531 4 -24.71875 C 5.101562 -27.050781 6.570312 -29.0625 8.40625 -30.75 C 10.25 -32.445312 12.320312 -33.75 14.625 -34.65625 C 16.925781 -35.5625 19.28125 -36.015625 21.6875 -36.015625 C 25.207031 -36.015625 28.191406 -35.289062 30.640625 -33.84375 C 33.097656 -32.394531 34.925781 -30.410156 36.125 -27.890625 C 37.320312 -25.367188 37.800781 -22.488281 37.5625 -19.25 Z M 26.3125 -24.40625 C 26.363281 -25.925781 25.875 -27.269531 24.84375 -28.4375 C 23.8125 -29.613281 22.488281 -30.203125 20.875 -30.203125 C 19.601562 -30.203125 18.523438 -29.847656 17.640625 -29.140625 C 16.753906 -28.429688 16.101562 -27.5625 15.6875 -26.53125 C 15.269531 -25.5 15.0625 -24.492188 15.0625 -23.515625 C 15.0625 -22.785156 15.179688 -22.332031 15.421875 -22.15625 C 15.671875 -21.988281 16.285156 -21.90625 17.265625 -21.90625 L 24.46875 -22.046875 C 25.300781 -22.046875 25.816406 -22.164062 26.015625 -22.40625 C 26.210938 -22.65625 26.3125 -23.320312 26.3125 -24.40625 Z M 26.3125 -24.40625 "/></g></g></g></g></svg>